<svg width="232" height="84" viewBox="0 0 232 84" fill="none" xmlns="http://www.w3.org/2000/svg">
<path d="M224.366 11.3331C224.187 9.65838 223.432 8.35441 222.103 7.42117C220.786 6.48793 219.073 6.02131 216.964 6.02131C215.481 6.02131 214.209 6.24503 213.148 6.69247C212.086 7.13992 211.275 7.74716 210.712 8.5142C210.15 9.28125 209.862 10.157 209.849 11.1413C209.849 11.9595 210.035 12.669 210.405 13.2699C210.789 13.8707 211.307 14.3821 211.959 14.804C212.611 15.2131 213.333 15.5582 214.126 15.8395C214.918 16.1207 215.717 16.3572 216.523 16.549L220.204 17.4695C221.687 17.8146 223.113 18.2813 224.481 18.8693C225.861 19.4574 227.095 20.1989 228.182 21.0938C229.281 21.9886 230.15 23.0689 230.79 24.3345C231.429 25.6001 231.748 27.0831 231.748 28.7834C231.748 31.0845 231.16 33.1108 229.984 34.8622C228.808 36.6009 227.108 37.9624 224.883 38.9467C222.672 39.9183 219.993 40.4041 216.849 40.4041C213.793 40.4041 211.14 39.9311 208.89 38.9851C206.653 38.0391 204.902 36.6584 203.636 34.843C202.383 33.0277 201.706 30.8161 201.604 28.2081H208.603C208.705 29.576 209.127 30.7138 209.868 31.6215C210.61 32.5291 211.575 33.2067 212.764 33.6541C213.966 34.1016 215.308 34.3253 216.791 34.3253C218.338 34.3253 219.693 34.0952 220.856 33.6349C222.032 33.1619 222.953 32.5099 223.618 31.679C224.282 30.8352 224.621 29.8509 224.634 28.7259C224.621 27.7031 224.321 26.8594 223.733 26.1946C223.145 25.517 222.32 24.9545 221.259 24.5071C220.211 24.0469 218.983 23.6378 217.577 23.2798L213.109 22.1293C209.875 21.2983 207.318 20.0391 205.439 18.3516C203.572 16.6513 202.639 14.3949 202.639 11.5824C202.639 9.26847 203.265 7.24219 204.518 5.50355C205.784 3.76492 207.503 2.41619 209.677 1.45739C211.85 0.485795 214.311 0 217.059 0C219.846 0 222.288 0.485795 224.385 1.45739C226.494 2.41619 228.15 3.75213 229.351 5.4652C230.553 7.16548 231.173 9.12145 231.211 11.3331H224.366Z" fill="#2563EB"/>
<path d="M188.175 0.536926H195.29V26.1946C195.29 29.0071 194.625 31.4808 193.295 33.6158C191.979 35.7507 190.125 37.419 187.734 38.6207C185.344 39.8097 182.55 40.4041 179.354 40.4041C176.146 40.4041 173.346 39.8097 170.955 38.6207C168.565 37.419 166.711 35.7507 165.394 33.6158C164.077 31.4808 163.419 29.0071 163.419 26.1946V0.536926H170.533V25.6001C170.533 27.2365 170.891 28.6939 171.607 29.9723C172.336 31.2507 173.359 32.2543 174.675 32.9829C175.992 33.6989 177.552 34.0568 179.354 34.0568C181.157 34.0568 182.717 33.6989 184.033 32.9829C185.363 32.2543 186.386 31.2507 187.101 29.9723C187.817 28.6939 188.175 27.2365 188.175 25.6001V0.536926Z" fill="#2563EB"/>
<path d="M128.667 39.8097V0.536926H143.394C146.411 0.536926 148.943 1.09943 150.988 2.22443C153.046 3.34943 154.6 4.8963 155.648 6.86505C156.709 8.82102 157.239 11.0454 157.239 13.5383C157.239 16.0568 156.709 18.294 155.648 20.25C154.587 22.206 153.021 23.7464 150.95 24.8714C148.879 25.9837 146.328 26.5398 143.298 26.5398H133.538V20.691H142.34C144.104 20.691 145.548 20.3842 146.673 19.7706C147.798 19.157 148.629 18.3132 149.166 17.2393C149.716 16.1655 149.991 14.9318 149.991 13.5383C149.991 12.1449 149.716 10.9176 149.166 9.85653C148.629 8.79545 147.792 7.97088 146.654 7.38281C145.529 6.78196 144.078 6.48153 142.301 6.48153H135.781V39.8097H128.667Z" fill="#2563EB"/>
<path d="M79.7295 0.536926H88.4355L100.095 28.9943H100.555L112.214 0.536926H120.92V39.8097H114.093V12.8288H113.729L102.875 39.6946H97.7742L86.9205 12.7713H86.5562V39.8097H79.7295V0.536926Z" fill="#2563EB"/>
<path d="M45.6968 39.8097H38.103L51.929 0.536926H60.7117L74.5569 39.8097H66.9631L56.4738 8.5909H56.1669L45.6968 39.8097ZM45.9461 24.4112H66.6563V30.1257H45.9461V24.4112Z" fill="#2563EB"/>
<path d="M34.6129 13.7876H27.4411C27.2365 12.6115 26.8594 11.5696 26.3097 10.6619C25.7599 9.74148 25.076 8.96165 24.2578 8.32244C23.4396 7.68324 22.5064 7.20384 21.4581 6.88423C20.4226 6.55185 19.304 6.38566 18.1023 6.38566C15.9673 6.38566 14.0753 6.92259 12.4261 7.99645C10.777 9.05753 9.4858 10.6172 8.55256 12.6754C7.61932 14.7209 7.1527 17.2202 7.1527 20.1733C7.1527 23.1776 7.61932 25.7088 8.55256 27.767C9.49858 29.8125 10.7898 31.3594 12.4261 32.4077C14.0753 33.4432 15.9609 33.9609 18.0831 33.9609C19.2592 33.9609 20.3587 33.8075 21.3814 33.5007C22.4169 33.1811 23.3437 32.7145 24.1619 32.1009C24.9929 31.4872 25.6896 30.733 26.2521 29.8381C26.8274 28.9432 27.2237 27.9205 27.4411 26.7699L34.6129 26.8082C34.3445 28.6747 33.7628 30.4261 32.8679 32.0625C31.9858 33.6989 30.8288 35.1435 29.397 36.3963C27.9652 37.6364 26.2905 38.608 24.3729 39.3111C22.4553 40.0014 20.3267 40.3466 17.9872 40.3466C14.5355 40.3466 11.4545 39.5476 8.74432 37.9496C6.03409 36.3516 3.89915 34.044 2.33949 31.027C0.77983 28.0099 0 24.392 0 20.1733C0 15.9418 0.786222 12.3239 2.35866 9.3196C3.93111 6.30256 6.07244 3.99503 8.78267 2.39702C11.4929 0.799006 14.5611 0 17.9872 0C20.1733 0 22.206 0.306818 24.0852 0.920454C25.9645 1.53409 27.6392 2.43537 29.1094 3.62429C30.5795 4.80043 31.7876 6.24503 32.7337 7.9581C33.6925 9.65838 34.3189 11.6016 34.6129 13.7876Z" fill="#2563EB"/>
<path d="M118.193 64C118.193 68.1952 117.407 71.7883 115.836 74.7795C114.277 77.7579 112.147 80.0393 109.448 81.6236C106.761 83.2079 103.713 84 100.303 84C96.8939 84 93.8394 83.2079 91.1398 81.6236C88.4529 80.0266 86.3236 77.7389 84.752 74.7605C83.193 71.7693 82.4136 68.1825 82.4136 64C82.4136 59.8048 83.193 56.218 84.752 53.2395C86.3236 50.2484 88.4529 47.9607 91.1398 46.3764C93.8394 44.7921 96.8939 44 100.303 44C103.713 44 106.761 44.7921 109.448 46.3764C112.147 47.9607 114.277 50.2484 115.836 53.2395C117.407 56.218 118.193 59.8048 118.193 64ZM111.102 64C111.102 61.0469 110.639 58.5564 109.714 56.5285C108.801 54.488 107.534 52.948 105.912 51.9087C104.289 50.8568 102.42 50.3308 100.303 50.3308C98.1867 50.3308 96.3172 50.8568 94.6949 51.9087C93.0726 52.948 91.7989 54.488 90.8736 56.5285C89.9611 58.5564 89.5048 61.0469 89.5048 64C89.5048 66.9531 89.9611 69.4499 90.8736 71.4905C91.7989 73.5184 93.0726 75.0583 94.6949 76.1103C96.3172 77.1496 98.1867 77.6692 100.303 77.6692C102.42 77.6692 104.289 77.1496 105.912 76.1103C107.534 75.0583 108.801 73.5184 109.714 71.4905C110.639 69.4499 111.102 66.9531 111.102 64Z" fill="#2563EB"/>
<path d="M69.0722 56.9658C68.7554 55.9392 68.3181 55.0203 67.7605 54.2091C67.2155 53.3853 66.5564 52.6819 65.7833 52.0989C65.0228 51.5158 64.1483 51.0786 63.1597 50.7871C62.1711 50.4829 61.0938 50.3308 59.9278 50.3308C57.8365 50.3308 55.9734 50.8568 54.3384 51.9087C52.7034 52.9607 51.417 54.507 50.4791 56.5475C49.5539 58.5754 49.0913 61.0469 49.0913 63.962C49.0913 66.9024 49.5539 69.3929 50.4791 71.4335C51.4043 73.474 52.6907 75.0266 54.3384 76.0913C55.9861 77.1432 57.8999 77.6692 60.0798 77.6692C62.057 77.6692 63.7681 77.289 65.2129 76.5285C66.6705 75.7681 67.7921 74.6907 68.5779 73.2966C69.3638 71.8897 69.7567 70.2421 69.7567 68.3536L71.3536 68.6008H60.7833V63.0875H76.5817V67.7643C76.5817 71.0976 75.872 73.981 74.4525 76.4144C73.033 78.8479 71.0811 80.7237 68.597 82.0418C66.1128 83.3473 63.2611 84 60.0418 84C56.455 84 53.3055 83.1952 50.5932 81.5856C47.8935 79.9632 45.7833 77.6629 44.2624 74.6844C42.7541 71.6933 42 68.1445 42 64.038C42 60.8948 42.4436 58.0875 43.3308 55.616C44.2307 53.1445 45.4854 51.0469 47.0951 49.3232C48.7047 47.5868 50.5932 46.2687 52.7605 45.3688C54.9278 44.4563 57.2852 44 59.8327 44C61.9873 44 63.9962 44.3169 65.8593 44.9506C67.7224 45.5716 69.3764 46.4588 70.8213 47.6122C72.2788 48.7655 73.4766 50.1343 74.4144 51.7186C75.3523 53.3029 75.967 55.052 76.2586 56.9658H69.0722Z" fill="#2563EB"/>
<path d="M2.91667 48.9167V54.75H0V48.9167C0 48.1431 0.307291 47.4013 0.854272 46.8543C1.40125 46.3073 2.14312 46 2.91667 46H8.75V48.9167H2.91667ZM32.0833 46C32.8569 46 33.5987 46.3073 34.1457 46.8543C34.6927 47.4013 35 48.1431 35 48.9167V54.75H32.0833V48.9167H26.25V46H32.0833ZM2.91667 72.25V78.0833H8.75V81H2.91667C2.14312 81 1.40125 80.6927 0.854272 80.1457C0.307291 79.5987 0 78.8569 0 78.0833V72.25H2.91667ZM32.0833 78.0833V72.25H35V78.0833C35 78.8569 34.6927 79.5987 34.1457 80.1457C33.5987 80.6927 32.8569 81 32.0833 81H26.25V78.0833H32.0833Z" fill="#EB4626"/>
<path d="M10.5242 73.5676V70.9857L17.5538 64.2708C18.2261 63.6093 18.7864 63.0216 19.2346 62.5078C19.6828 61.994 20.019 61.4963 20.2431 61.0146C20.4672 60.5329 20.5792 60.0191 20.5792 59.4732C20.5792 58.8502 20.4342 58.3171 20.1442 57.8739C19.8542 57.4243 19.4554 57.0775 18.9479 56.8335C18.4404 56.5894 17.8636 56.4674 17.2177 56.4674C16.5519 56.4674 15.9686 56.6022 15.4677 56.872C14.9667 57.1353 14.5778 57.511 14.301 57.9992C14.0308 58.4873 13.8956 59.0685 13.8956 59.7429H10.4055C10.4055 58.4905 10.6988 57.4019 11.2855 56.477C11.8721 55.5522 12.6795 54.836 13.7078 54.3286C14.7426 53.8213 15.9291 53.5676 17.2671 53.5676C18.6249 53.5676 19.8179 53.8148 20.8462 54.3094C21.8744 54.8039 22.672 55.4815 23.2389 56.3421C23.8123 57.2028 24.099 58.1854 24.099 59.2901C24.099 60.0287 23.954 60.7545 23.664 61.4674C23.374 62.1803 22.8631 62.9703 22.1315 63.8373C21.4065 64.7044 20.3881 65.7545 19.0764 66.9876L15.5863 70.4462V70.5811H24.4055V73.5676H10.5242Z" fill="#EB4626"/>
</svg>
